# xmcd
#
# Track frame offsets: 
#        150
#        1745
#        19782
#        42112
#        55402
#        78580
#        90687
#        105720
#        121432
#        142592
#        158450
#        188515
#        194267
#        218870
#
# Disc length: 3230 seconds
#
# Revision: 0
# Processed by: cddbd v1.5.2PL0 Copyright (c) Steve Scherf et al.
# Submitted via: ExactAudioCopy v0.95b4
#
DISCID=a70c9c0e
DTITLE=Bob Neuwirth - Back To The Front
DYEAR=1998
DGENRE=Blues
TTITLE0=Banjo Introduction
TTITLE1=Eye On The Road
TTITLE2=Annabelle Lee
TTITLE3=Private Eye
TTITLE4=Beauty
TTITLE5=Heartaches
TTITLE6=Pretend
TTITLE7=Turn It Around
TTITLE8=Venice Beach
TTITLE9=Lucky
TTITLE10=Akron
TTITLE11=For P.B.
TTITLE12=Honky Tonk
TTITLE13=Great Escape (Good Intentions)
EXTD=
EXTT0=
EXTT1=
EXTT2=
EXTT3=
EXTT4=
EXTT5=
EXTT6=
EXTT7=
EXTT8=
EXTT9=
EXTT10=
EXTT11=
EXTT12=
EXTT13=
PLAYORDER=
